<svg id="Calque_1" data-name="Calque 1" xmlns="http://www.w3.org/2000/svg" viewBox="0 0 273.37 526.41"><title>halter</title><g id="Halter"><path d="M1242.17,314.23,1242,468.86l-65.47-.08.18-132.68-142.11-.2-.19,132.68H968.8l.31-154.74a43.53,43.53,0,0,1,43.48-43.35l186.21.25a43.15,43.15,0,0,1,30.61,12.75A43.67,43.67,0,0,1,1242.17,314.23Z" transform="translate(-968.8 -270.5)"/><path d="M1242.17,598.93l-.32,154.79a43.26,43.26,0,0,1-43.49,43.18l-186.28-.25a43.41,43.41,0,0,1-43.28-43.4l.31-154.8,65.4.19-.18,132.73,142.15.21.19-132.73Z" transform="translate(-968.8 -270.5)"/></g></svg>