<svg xmlns="http://www.w3.org/2000/svg" viewBox="0 0 638.75 287.05"><title>lessaturn</title><g id="Vaisseaux"><path id="Lessaturn" d="M1509.8,516.21l-77.65-35.4a19.69,19.69,0,0,1-11.51-17.91,12,12,0,0,0-12-12h-17.23a17,17,0,0,1-17-17V408.48a12,12,0,0,0-12-12H1330a12,12,0,0,0-12,12v25.26a5,5,0,0,1-5,5h0l-102.24-.05-72.64-.09-157.69-.22H907.57l-20.94,0-.29,202.76,21.15,0,72.54.21,157.68.23,72.65.09,102.23,0h.35a5,5,0,0,1,5,5v24.88a12,12,0,0,0,12,12h32.43a12,12,0,0,0,12-12v-26a17,17,0,0,1,17-17h17.23a12,12,0,0,0,12-12,18.73,18.73,0,0,1,10.95-17l78.21-35.68C1530.19,554.48,1530.19,525.52,1509.8,516.21ZM1317.24,512a30,30,0,0,1,26-15h32.31l16.16,28a29.69,29.69,0,0,1,3.56,9.79h-91.16Zm74.45,43-16.16,28h-32.31a30,30,0,0,1-26-15l-13.5-23.38h91.61A30,30,0,0,1,1391.69,555Z" transform="translate(-886.34 -396.48)"/></g></svg>