<svg id="Calque_1" data-name="Calque 1" xmlns="http://www.w3.org/2000/svg" viewBox="0 0 484.09 467.6"><title>shosson</title><g id="Shosson"><path d="M1298.89,453.82l-403.43,2.41-73.11-73.65a24,24,0,0,1,9.5-39.7l104.93-34.54a48,48,0,0,1,49,11.77l73.41,73.94C1143.4,375.55,1226.19,380.58,1298.89,453.82Z" transform="translate(-815.08 -305.95)"/><path d="M1299.17,628.17c-72.88,72.35-156,76.78-240,57.88l-74.1,73.56A47.89,47.89,0,0,1,936,771L831.38,735.78a24,24,0,0,1-9.2-39.76l73.7-73.16Z" transform="translate(-815.08 -305.95)"/></g></svg>