<svg xmlns="http://www.w3.org/2000/svg" viewBox="0 0 375.75 323.08"><title>tentakul</title><g id="réacteurs"><path id="Tentakul" d="M842.7,379.72C873.85,384.09,904.86,399,927,417a131.11,131.11,0,0,1,15,14.18c12.06,13.49,18.62,27.62,16.64,39.82-1.46,9-7.7,17.64-16.64,24.76v88.49c8.94,7.13,15.18,15.75,16.64,24.77,2,12.2-4.58,26.33-16.64,39.82a123,123,0,0,1-10.83,10.66c-22.32,19.58-55.31,36.13-88.47,40.79-60.52,8.49-78.86-28.64-167.74-29.6-57.08-.62-87.18,14.29-91.27,4.93-6.11-14,50.63-72.2,118.41-76.47C753,595.94,775,625.32,815.57,609a71.52,71.52,0,0,0,14.57-7.85l-5.75-3.32c-46.8-27-46.8-94.58,0-121.6l.89-.52a73.22,73.22,0,0,0-9.71-4.73C775,454.68,753,484.06,702.1,480.86c-67.78-4.27-124.52-62.46-118.41-76.47,4.09-9.36,34.19,5.55,91.27,4.93C763.84,408.36,782.18,371.22,842.7,379.72Z" transform="translate(-583.24 -378.46)"/></g></svg>